# xmcd
#
# Track frame offsets: 
#        150
#        4560
#        20240
#        25455
#        48702
#        74475
#        79505
#        106390
#        121092
#        132322
#        156460
#        180827
#        203812
#        226605
#        254282
#        273277
#        282392
#
# Disc length: 3969 seconds
#
# Revision: 1
# Processed by: cddbd v1.5.2PL0 Copyright (c) Steve Scherf et al.
# Submitted via: ExactAudioCopy v0.95b4
#
DISCID=e60f7f11
DTITLE=Änglaspel - Zigidap
DYEAR=1991
DGENRE=Jazz
TTITLE0=Bubblor
TTITLE1=Mini
TTITLE2=Vid Klara Kyrka
TTITLE3=210
TTITLE4=X-Ballad
TTITLE5=Gävle
TTITLE6=Trög
TTITLE7=Borta
TTITLE8=Hissen
TTITLE9=Fort
TTITLE10=Slöja
TTITLE11=Lalanda Labb
TTITLE12=Samsak
TTITLE13=Dragspel
TTITLE14=Zigidap
TTITLE15=Vid Klara Kyrka II
TTITLE16=Go'natt
EXTD=YEAR: 1991
EXTT0=
EXTT1=
EXTT2=
EXTT3=
EXTT4=
EXTT5=
EXTT6=
EXTT7=
EXTT8=
EXTT9=
EXTT10=
EXTT11=
EXTT12=
EXTT13=
EXTT14=
EXTT15=
EXTT16=
PLAYORDER=
